<svg width="23" height="23" viewBox="0 0 23 23" fill="none" xmlns="http://www.w3.org/2000/svg">
<path d="M2.63531 3.4498C2.21714 3.4498 1.8161 3.61591 1.5204 3.91161C1.22471 4.2073 1.05859 4.60834 1.05859 5.02652V20.0053C1.05859 20.4235 1.22471 20.8246 1.5204 21.1203C1.8161 21.416 2.21714 21.5821 2.63531 21.5821H19.9792C20.3974 21.5821 20.7984 21.416 21.0941 21.1203C21.3898 20.8246 21.5559 20.4235 21.5559 20.0053V5.02652C21.5559 4.60834 21.3898 4.2073 21.0941 3.91161C20.7984 3.61591 20.3974 3.4498 19.9792 3.4498H16.8258M5.78875 1.08472V5.81488M16.8258 1.08472V5.81488M5.78875 3.4498H13.6723" stroke="#F6FFFC" stroke-width="2.2" stroke-linecap="round" stroke-linejoin="round"/>
<path d="M10.0272 7.48938C9.81812 7.48938 9.6176 7.57244 9.46975 7.72029C9.32191 7.86813 9.23885 8.06865 9.23885 8.27774V10.4946H7.01883C6.80974 10.4946 6.60922 10.5777 6.46137 10.7255C6.31353 10.8734 6.23047 11.0739 6.23047 11.283V13.8451C6.23047 14.0542 6.31353 14.2547 6.46137 14.4026C6.60922 14.5504 6.80974 14.6335 7.01883 14.6335H9.23727V16.8504C9.23727 17.0595 9.32033 17.26 9.46818 17.4078C9.61602 17.5557 9.81655 17.6387 10.0256 17.6387H12.5878C12.6913 17.6387 12.7938 17.6183 12.8895 17.5787C12.9851 17.5391 13.0721 17.481 13.1453 17.4078C13.2185 17.3346 13.2765 17.2477 13.3162 17.1521C13.3558 17.0564 13.3762 16.9539 13.3762 16.8504V14.6335H15.593C15.8021 14.6335 16.0026 14.5504 16.1505 14.4026C16.2983 14.2547 16.3814 14.0542 16.3814 13.8451V11.283C16.3814 11.0739 16.2983 10.8734 16.1505 10.7255C16.0026 10.5777 15.8021 10.4946 15.593 10.4946H13.3777V8.27774C13.3777 8.06865 13.2947 7.86813 13.1468 7.72029C12.999 7.57244 12.7985 7.48938 12.5894 7.48938H10.0272Z" stroke="#F6FFFC" stroke-width="2.2" stroke-linecap="round" stroke-linejoin="round"/>
</svg>
