<svg width="23" height="23" viewBox="0 0 23 23" fill="none" xmlns="http://www.w3.org/2000/svg">
<path d="M3.13236 22.1852C2.45788 22.1852 1.88068 21.9452 1.40077 21.4653C0.920867 20.9854 0.680505 20.4078 0.679688 19.7325V2.56376C0.679688 1.88927 0.92005 1.31208 1.40077 0.832171C1.8815 0.352264 2.45869 0.111902 3.13236 0.111084H20.3011C20.9756 0.111084 21.5532 0.351446 22.0339 0.832171C22.5146 1.31289 22.7546 1.89009 22.7538 2.56376V19.7325C22.7538 20.407 22.5138 20.9846 22.0339 21.4653C21.554 21.946 20.9764 22.186 20.3011 22.1852H3.13236ZM3.13236 19.7325H20.3011V2.56376H3.13236V19.7325ZM6.81138 17.2798H12.9431C13.2905 17.2798 13.582 17.1621 13.8174 16.9266C14.0529 16.6912 14.1702 16.4001 14.1694 16.0535C14.1686 15.7068 14.0509 15.4158 13.8162 15.1803C13.5816 14.9449 13.2905 14.8271 12.9431 14.8271H6.81138C6.46391 14.8271 6.17286 14.9449 5.93822 15.1803C5.70358 15.4158 5.58586 15.7068 5.58504 16.0535C5.58422 16.4001 5.70195 16.6916 5.93822 16.9279C6.1745 17.1641 6.46555 17.2814 6.81138 17.2798ZM6.81138 12.3745H16.6221C16.9695 12.3745 17.261 12.2567 17.4965 12.0213C17.7319 11.7858 17.8492 11.4948 17.8484 11.1481C17.8476 10.8015 17.7299 10.5104 17.4952 10.275C17.2606 10.0395 16.9695 9.92178 16.6221 9.92178H6.81138C6.46391 9.92178 6.17286 10.0395 5.93822 10.275C5.70358 10.5104 5.58586 10.8015 5.58504 11.1481C5.58422 11.4948 5.70195 11.7862 5.93822 12.0225C6.1745 12.2588 6.46555 12.3761 6.81138 12.3745ZM6.81138 7.46911H16.6221C16.9695 7.46911 17.261 7.35138 17.4965 7.11592C17.7319 6.88047 17.8492 6.58942 17.8484 6.24277C17.8476 5.89613 17.7299 5.60508 17.4952 5.36962C17.2606 5.13416 16.9695 5.01643 16.6221 5.01643H6.81138C6.46391 5.01643 6.17286 5.13416 5.93822 5.36962C5.70358 5.60508 5.58586 5.89613 5.58504 6.24277C5.58422 6.58942 5.70195 6.88088 5.93822 7.11715C6.1745 7.35343 6.46555 7.47074 6.81138 7.46911Z" fill="#EEF7F8"/>
</svg>
