<svg width="16" height="16" viewBox="0 0 16 16" fill="none" xmlns="http://www.w3.org/2000/svg">
<path d="M1.60058 15.398C1.37065 15.398 1.17805 15.3201 1.02278 15.1643C0.867509 15.0085 0.789604 14.8159 0.789062 14.5865V12.6185C0.789062 12.4021 0.829638 12.1957 0.91079 11.9993C0.991942 11.803 1.10691 11.6306 1.25569 11.4824L11.5011 1.25727C11.6634 1.10849 11.8428 0.993529 12.0391 0.912377C12.2355 0.831225 12.4417 0.790649 12.6575 0.790649C12.8734 0.790649 13.083 0.831225 13.2864 0.912377C13.4899 0.993529 13.6657 1.11526 13.8139 1.27756L14.9298 2.41369C15.0921 2.56246 15.2103 2.73829 15.2844 2.94117C15.3585 3.14405 15.3959 3.34693 15.3964 3.54981C15.3964 3.76622 15.3591 3.97261 15.2844 4.169C15.2097 4.36539 15.0915 4.54446 14.9298 4.70623L4.70464 14.9314C4.55586 15.0801 4.38328 15.1951 4.18689 15.2763C3.9905 15.3574 3.78438 15.398 3.56851 15.398H1.60058ZM12.6372 4.68594L13.7734 3.54981L12.6372 2.41369L11.5011 3.54981L12.6372 4.68594Z" fill="white"/>
</svg>
