<svg width="30" height="30" viewBox="0 0 30 30" fill="none" xmlns="http://www.w3.org/2000/svg">
<path d="M14.9987 23.2173H5.60742M24.39 6.7825H20.8683M24.39 23.2173H19.6944M16.1726 6.7825H5.60742M9.12916 14.9999H5.60742M24.39 14.9999L13.8248 14.9999" stroke="white" stroke-linecap="round"/>
<path d="M19.6937 23.2174C19.6937 21.9207 18.6425 20.8695 17.3459 20.8695C16.0492 20.8695 14.998 21.9207 14.998 23.2174C14.998 24.514 16.0492 25.5652 17.3459 25.5652C18.6425 25.5652 19.6937 24.514 19.6937 23.2174Z" stroke="white" stroke-linecap="round"/>
<path d="M13.8246 15.0001C13.8246 13.7034 12.7734 12.6522 11.4767 12.6522C10.1801 12.6522 9.12891 13.7034 9.12891 15.0001C9.12891 16.2967 10.1801 17.3479 11.4767 17.3479C12.7734 17.3479 13.8246 16.2967 13.8246 15.0001Z" stroke="white" stroke-linecap="round"/>
<path d="M20.8675 6.78254C20.8675 5.48588 19.8164 4.43472 18.5197 4.43472C17.223 4.43472 16.1719 5.48588 16.1719 6.78254C16.1719 8.07921 17.223 9.13037 18.5197 9.13037C19.8164 9.13037 20.8675 8.07921 20.8675 6.78254Z" stroke="white" stroke-linecap="round"/>
</svg>
