<svg width="25" height="25" viewBox="0 0 25 25" fill="none" xmlns="http://www.w3.org/2000/svg">
<path d="M3.54057 12.716H1.08789L12.1249 1.67896L23.162 12.716H20.7093M3.54057 12.716V21.3004C3.54057 21.9508 3.79897 22.5747 4.25894 23.0347C4.7189 23.4946 5.34275 23.753 5.99324 23.753H18.2566C18.9071 23.753 19.531 23.4946 19.9909 23.0347C20.4509 22.5747 20.7093 21.9508 20.7093 21.3004V12.716" stroke="#F6FFFC" stroke-width="2" stroke-linecap="round" stroke-linejoin="round"/>
<path d="M8.44531 23.7531V16.3951C8.44531 15.7446 8.70372 15.1207 9.16368 14.6608C9.62365 14.2008 10.2475 13.9424 10.898 13.9424H13.3507C14.0012 13.9424 14.625 14.2008 15.085 14.6608C15.5449 15.1207 15.8033 15.7446 15.8033 16.3951V23.7531" stroke="#F6FFFC" stroke-width="2" stroke-linecap="round" stroke-linejoin="round"/>
</svg>
