<svg width="23" height="23" viewBox="0 0 23 23" fill="none" xmlns="http://www.w3.org/2000/svg">
<path d="M3.13236 22.7531C2.45788 22.7531 1.88068 22.5131 1.40077 22.0332C0.920867 21.5533 0.680505 20.9757 0.679688 20.3004V3.13169C0.679688 2.45721 0.92005 1.88001 1.40077 1.4001C1.8815 0.920196 2.45869 0.679834 3.13236 0.679016H10.4904C10.8378 0.679016 11.1293 0.796745 11.3648 1.0322C11.6002 1.26766 11.7175 1.55871 11.7167 1.90535C11.7159 2.252 11.5982 2.54346 11.3635 2.77973C11.1289 3.01601 10.8378 3.13333 10.4904 3.13169H3.13236V20.3004H10.4904C10.8378 20.3004 11.1293 20.4181 11.3648 20.6536C11.6002 20.8891 11.7175 21.1801 11.7167 21.5268C11.7159 21.8734 11.5982 22.1649 11.3635 22.4011C11.1289 22.6374 10.8378 22.7547 10.4904 22.7531H3.13236ZM18.063 12.9424H9.26405C8.91659 12.9424 8.62554 12.8247 8.3909 12.5892C8.15626 12.3537 8.03853 12.0627 8.03771 11.7161C8.03689 11.3694 8.15462 11.0784 8.3909 10.8429C8.62717 10.6074 8.91822 10.4897 9.26405 10.4897H18.063L15.7636 8.19033C15.5388 7.9655 15.4264 7.68958 15.4264 7.36256C15.4264 7.03553 15.5388 6.74939 15.7636 6.50412C15.9885 6.25885 16.2746 6.1309 16.6221 6.12028C16.9695 6.10965 17.2659 6.22738 17.5112 6.47346L21.8953 10.8576C22.1406 11.1029 22.2632 11.389 22.2632 11.7161C22.2632 12.0431 22.1406 12.3292 21.8953 12.5745L17.5112 16.9586C17.2659 17.2039 16.9749 17.3216 16.638 17.3118C16.3012 17.302 16.0097 17.1741 15.7636 16.928C15.5388 16.6827 15.4317 16.3917 15.4423 16.0548C15.453 15.718 15.5703 15.4368 15.7943 15.2111L18.063 12.9424Z" fill="#EEF7F8"/>
</svg>
