<svg width="18" height="19" viewBox="0 0 18 19" fill="none" xmlns="http://www.w3.org/2000/svg">
<path d="M15.9007 10.764V10.7876L15.9112 10.8087L17.7332 14.4527L17.8227 14.408L17.7332 14.4527C17.8095 14.6052 17.8455 14.7746 17.8378 14.9449C17.8302 15.1152 17.7791 15.2808 17.6895 15.4258C17.5998 15.5708 17.4746 15.6905 17.3257 15.7735C17.1768 15.8565 17.0092 15.9 16.8387 15.9H12.8747H12.7973L12.7779 15.9749C12.561 16.8117 12.0724 17.5528 11.3887 18.0818C10.7051 18.6109 9.86511 18.8979 9.00066 18.8979C8.13622 18.8979 7.29625 18.6109 6.6126 18.0818C5.92896 17.5528 5.44034 16.8117 5.22346 15.9749L5.20405 15.9H5.12666H1.16266C0.992173 15.9 0.824522 15.8565 0.675618 15.7735C0.526714 15.6905 0.401501 15.5708 0.311871 15.4258C0.222241 15.2808 0.171171 15.1152 0.16351 14.9449C0.15585 14.7746 0.191854 14.6052 0.268103 14.4527L0.178674 14.408L0.268106 14.4527L2.09011 10.8087L2.10066 10.7876V10.764V7C2.10066 5.17001 2.82763 3.41496 4.12163 2.12096C5.41563 0.826962 7.17067 0.1 9.00066 0.1C10.8307 0.1 12.5857 0.826962 13.8797 2.12096C15.1737 3.41496 15.9007 5.17001 15.9007 7V10.764ZM7.26866 15.9H7.09545L7.18206 16.05C7.36638 16.3692 7.63148 16.6343 7.95071 16.8186C8.26994 17.0029 8.63205 17.0999 9.00066 17.0999C9.36927 17.0999 9.73139 17.0029 10.0506 16.8186C10.3698 16.6343 10.6349 16.3692 10.8193 16.05L10.9059 15.9H10.7327H7.26866ZM3.70021 11.6133L3.7002 11.6133L2.5302 13.9553L2.45792 14.1H2.61966H15.3827H15.5444L15.4721 13.9553L14.3021 11.6133L14.3021 11.6132C14.17 11.3496 14.101 11.0588 14.1007 10.7639V7C14.1007 5.6474 13.5633 4.35019 12.6069 3.39376C11.6505 2.43732 10.3533 1.9 9.00066 1.9C7.64806 1.9 6.35085 2.43732 5.39442 3.39376C4.43798 4.35019 3.90066 5.6474 3.90066 7V10.764C3.90064 11.0588 3.83202 11.3496 3.70021 11.6133Z" fill="black" stroke="white" stroke-width="0.2"/>
</svg>
