<svg width="22" height="21" viewBox="0 0 22 21" fill="none" xmlns="http://www.w3.org/2000/svg">
<path d="M20.2 8.38404L18.4832 7.83219L18.1153 6.91244L18.9737 5.3182C19.1577 4.9503 19.0963 4.45976 18.7898 4.15318L17.3182 2.68158C17.0116 2.37499 16.521 2.31367 16.1531 2.49762L14.5589 3.35606L13.6391 2.98816L13.0873 1.27129C12.9647 0.903386 12.5968 0.596802 12.1675 0.596802H10.0828C9.65355 0.596802 9.28565 0.903386 9.22433 1.3326L8.67248 3.04948C8.30458 3.11079 7.99799 3.23343 7.69141 3.41738L6.09717 2.55894C5.72927 2.37499 5.23873 2.43631 4.93215 2.74289L3.46054 4.2145C3.15396 4.52108 3.09264 5.01162 3.27659 5.37952L4.07371 6.91244C3.95108 7.21902 3.82844 7.58692 3.70581 7.89351L1.98894 8.44536C1.62104 8.56799 1.31445 8.93589 1.31445 9.36511V11.4499C1.31445 11.8791 1.62104 12.247 2.05026 12.3696L3.76713 12.9215L4.13503 13.8412L3.27659 15.4355C3.09264 15.8034 3.15396 16.2939 3.46054 16.6005L4.93215 18.0721C5.23873 18.3787 5.72927 18.44 6.09717 18.2561L7.69141 17.3976L8.61116 17.7655L9.16301 19.5437C9.28565 19.9116 9.65355 20.2182 10.0828 20.2182H12.1675C12.5968 20.2182 12.9647 19.9116 13.0873 19.5437L13.6391 17.7655L14.5589 17.3976L16.1531 18.2561C16.521 18.44 17.0116 18.3787 17.3182 18.0721L18.7898 16.6005C19.0963 16.2939 19.1577 15.8034 18.9737 15.4355L18.1153 13.8412L18.4832 12.9215L20.2614 12.3696C20.6293 12.247 20.9359 11.8791 20.9359 11.4499V9.36511C20.9359 8.93589 20.6293 8.50668 20.2 8.38404ZM19.7095 11.2659L17.5021 11.9404L17.4408 12.247L16.8889 13.5347L16.705 13.8412L17.8087 15.8647L16.5824 17.091L14.5589 15.9873L14.2523 16.1713C13.8231 16.4166 13.3939 16.6005 12.9647 16.7231L12.6581 16.7845L11.9836 18.9919H10.2667L9.59223 16.7845L9.28565 16.7231L7.99799 16.1713L7.69141 15.9873L5.66795 17.091L4.44161 15.8647L5.54532 13.8412L5.36137 13.5347C5.1161 13.1054 4.93215 12.6762 4.80951 12.247L4.7482 11.9404L2.54079 11.2659V9.54906L4.62556 8.9359L4.7482 8.62931C4.87083 8.13878 5.05478 7.70956 5.30005 7.28034L5.484 6.97376L4.44161 4.9503L5.66795 3.72396L7.63009 4.82767L7.93667 4.64371C8.36589 4.39845 8.79511 4.2145 9.28565 4.09186L9.59223 3.96923L10.2667 1.82314H11.9836L12.6581 3.96923L12.9647 4.09186C13.3939 4.2145 13.8231 4.39845 14.2523 4.64371L14.5589 4.82767L16.5824 3.72396L17.8087 4.9503L16.705 6.97376L16.8889 7.28034C17.1342 7.70956 17.3182 8.13878 17.4408 8.56799L17.5021 8.87458L19.7095 9.54906V11.2659Z" fill="#F6FFFC" stroke="#F6FFFC"/>
</svg>
