<svg width="25" height="25" viewBox="0 0 25 25" fill="none" xmlns="http://www.w3.org/2000/svg">
<path d="M12.6937 15.442C14.3184 15.442 15.6355 14.1249 15.6355 12.5002C15.6355 10.8755 14.3184 9.55847 12.6937 9.55847C11.069 9.55847 9.75195 10.8755 9.75195 12.5002C9.75195 14.1249 11.069 15.442 12.6937 15.442Z" fill="white"/>
<path d="M23.6808 12.2502C22.8158 10.0127 21.3142 8.07775 19.3614 6.68444C17.4087 5.29113 15.0905 4.50055 12.6934 4.4104C10.2962 4.50055 7.97803 5.29113 6.0253 6.68444C4.07258 8.07775 2.57092 10.0127 1.70592 12.2502C1.6475 12.4118 1.6475 12.5887 1.70592 12.7503C2.57092 14.9877 4.07258 16.9227 6.0253 18.316C7.97803 19.7093 10.2962 20.4999 12.6934 20.59C15.0905 20.4999 17.4087 19.7093 19.3614 18.316C21.3142 16.9227 22.8158 14.9877 23.6808 12.7503C23.7392 12.5887 23.7392 12.4118 23.6808 12.2502ZM12.6934 17.2806C11.7479 17.2806 10.8237 17.0002 10.0376 16.4749C9.25143 15.9497 8.63872 15.2031 8.27691 14.3296C7.91509 13.4561 7.82043 12.4949 8.00488 11.5676C8.18933 10.6403 8.64461 9.78855 9.31316 9.12001C9.9817 8.45146 10.8335 7.99618 11.7608 7.81173C12.6881 7.62728 13.6492 7.72194 14.5227 8.08376C15.3962 8.44557 16.1428 9.05828 16.6681 9.8444C17.1934 10.6305 17.4737 11.5548 17.4737 12.5002C17.4718 13.7675 16.9675 14.9822 16.0714 15.8783C15.1754 16.7744 13.9606 17.2786 12.6934 17.2806Z" fill="white"/>
</svg>
