<svg width="23" height="25" viewBox="0 0 23 25" fill="none" xmlns="http://www.w3.org/2000/svg">
<path fill-rule="evenodd" clip-rule="evenodd" d="M6.21958 2.76957H16.0303V0.316895H18.483V2.76957H19.7093C20.3598 2.76957 20.9836 3.02798 21.4436 3.48794C21.9036 3.94791 22.162 4.57175 22.162 5.22224V22.391C22.162 23.0415 21.9036 23.6653 21.4436 24.1253C20.9836 24.5852 20.3598 24.8436 19.7093 24.8436H2.54057C1.89008 24.8436 1.26623 24.5852 0.806262 24.1253C0.346297 23.6653 0.0878906 23.0415 0.0878906 22.391V5.22224C0.0878906 4.57175 0.346297 3.94791 0.806262 3.48794C1.26623 3.02798 1.89008 2.76957 2.54057 2.76957H3.7669V0.316895H6.21958V2.76957ZM2.54057 7.67492V22.391H19.7093V7.67492H2.54057ZM4.99324 11.3539H7.44592V13.8066H4.99324V11.3539ZM9.89859 11.3539H12.3513V13.8066H9.89859V11.3539ZM14.8039 11.3539H17.2566V13.8066H14.8039V11.3539ZM14.8039 16.2593H17.2566V18.712H14.8039V16.2593ZM9.89859 16.2593H12.3513V18.712H9.89859V16.2593ZM4.99324 16.2593H7.44592V18.712H4.99324V16.2593Z" fill="#F6FFFC"/>
</svg>
